<svg 
 xmlns="http://www.w3.org/2000/svg"
 xmlns:xlink="http://www.w3.org/1999/xlink"
 width="28px" height="22px">
<path fill-rule="evenodd"  fill="rgb(156, 156, 164)"
 d="M6.677,10.995 L13.771,10.995 C14.153,10.995 14.465,11.306 14.465,11.688 C14.465,12.071 14.153,12.382 13.771,12.382 L6.677,12.382 C6.294,12.382 5.983,12.071 5.983,11.688 C5.983,11.306 6.294,10.995 6.677,10.995 ZM12.650,17.835 C12.650,18.218 12.339,18.529 11.956,18.529 L4.862,18.529 C4.479,18.529 4.168,18.218 4.168,17.835 C4.168,17.453 4.479,17.142 4.862,17.142 L11.956,17.142 C12.339,17.142 12.650,17.453 12.650,17.835 ZM5.879,14.132 L12.973,14.132 C13.356,14.132 13.667,14.443 13.667,14.825 C13.667,15.208 13.356,15.519 12.973,15.519 L5.879,15.519 C5.497,15.519 5.186,15.208 5.186,14.825 C5.186,14.443 5.497,14.132 5.879,14.132 ZM19.393,15.099 C17.905,15.099 16.695,13.889 16.695,12.402 C16.695,10.914 17.905,9.704 19.393,9.704 C20.881,9.704 22.091,10.914 22.091,12.402 C22.091,13.889 20.881,15.099 19.393,15.099 ZM19.393,10.991 C18.615,10.991 17.982,11.624 17.982,12.402 C17.982,13.179 18.615,13.812 19.393,13.812 C20.171,13.812 20.804,13.179 20.804,12.402 C20.804,11.624 20.171,10.991 19.393,10.991 ZM23.919,15.186 C24.042,15.333 24.092,15.525 24.058,15.714 L23.481,18.883 C23.425,19.189 23.158,19.411 22.847,19.411 L16.103,19.411 C15.802,19.411 15.545,19.206 15.476,18.914 L14.734,15.745 C14.690,15.552 14.734,15.353 14.857,15.198 C14.980,15.043 15.164,14.955 15.361,14.955 L16.845,14.955 C17.200,14.955 17.489,15.243 17.489,15.598 C17.489,15.953 17.200,16.242 16.845,16.242 L16.173,16.242 L16.614,18.124 L22.310,18.124 L22.653,16.242 L21.830,16.242 C21.475,16.242 21.186,15.953 21.186,15.598 C21.186,15.243 21.475,14.955 21.830,14.955 L23.424,14.955 C23.616,14.955 23.796,15.039 23.919,15.186 ZM27.174,9.756 L25.314,20.742 L25.312,20.749 C25.138,21.272 24.439,22.000 23.696,22.000 L22.682,22.000 C22.223,22.000 21.983,21.649 21.983,21.301 C21.983,20.973 22.202,20.619 22.682,20.619 L23.696,20.619 C23.781,20.619 23.936,20.356 23.936,20.211 L23.937,20.194 L25.764,9.540 L25.764,9.255 C25.709,9.209 25.610,9.141 25.525,9.141 L4.563,9.141 C4.449,9.141 4.324,9.266 4.324,9.380 L4.322,9.396 L2.495,20.219 L2.495,20.505 C2.550,20.551 2.649,20.619 2.734,20.619 L17.780,20.619 C18.291,20.619 18.559,20.969 18.559,21.315 C18.559,21.645 18.315,22.000 17.780,22.000 L2.734,22.000 C2.232,22.000 1.857,21.840 1.481,21.464 C1.232,21.215 0.989,20.897 1.060,20.420 C0.985,20.299 0.945,20.169 0.945,20.042 L0.945,1.620 C0.945,1.185 1.113,0.777 1.418,0.473 C1.723,0.168 2.130,-0.000 2.565,-0.000 L11.525,-0.000 C11.960,-0.000 12.368,0.168 12.673,0.473 C12.978,0.777 13.145,1.185 13.145,1.620 L13.145,2.873 L23.358,2.873 C23.794,2.873 24.201,3.041 24.506,3.346 C24.811,3.651 24.979,4.058 24.979,4.493 L24.979,7.774 L25.556,7.774 C26.059,7.774 26.434,7.935 26.809,8.310 C27.199,8.700 27.338,9.253 27.174,9.756 ZM23.591,4.662 C23.591,4.347 23.540,4.260 23.352,4.260 L11.933,4.260 L11.933,1.620 C11.933,1.506 11.808,1.381 11.694,1.381 L2.734,1.381 C2.621,1.381 2.495,1.506 2.495,1.620 L2.495,12.041 L2.975,9.206 C3.141,8.376 3.822,7.774 4.594,7.774 L23.591,7.774 L23.591,4.662 Z"/>
</svg>