<svg id="图层_1" data-name="图层 1" xmlns="http://www.w3.org/2000/svg" xmlns:xlink="http://www.w3.org/1999/xlink" viewBox="0 0 240 150"><defs><style>.cls-1{fill:url(#未命名的渐变);}.cls-2{fill:url(#未命名的渐变_2);}.cls-3{fill:url(#未命名的渐变_3);}.cls-4{fill:url(#未命名的渐变_4);}.cls-5{fill:url(#未命名的渐变_5);}.cls-6{fill:url(#未命名的渐变_6);}.cls-7{opacity:0.55;}.cls-8{fill:url(#未命名的渐变_8);}.cls-9{fill:url(#未命名的渐变_9);}.cls-10{fill:url(#未命名的渐变_10);}.cls-11{fill:url(#未命名的渐变_11);}.cls-12,.cls-15{opacity:0.99;isolation:isolate;}.cls-12{fill:url(#未命名的渐变_12);}.cls-13{fill:url(#未命名的渐变_13);}.cls-14{fill:url(#未命名的渐变_14);}.cls-15{fill:url(#未命名的渐变_15);}.cls-16{fill:none;stroke:#ddd;}.cls-17{fill:url(#未命名的渐变_16);}.cls-18{opacity:0.8;}.cls-19{fill:url(#未命名的渐变_22);}.cls-20{fill:#fff;}.cls-21{fill:#ba5025;}</style><linearGradient id="未命名的渐变" x1="2323.53" y1="1162.78" x2="2324.17" y2="1161.2" gradientTransform="matrix(63.93, 0, 0, -65.41, -148519.23, 76069.2)" gradientUnits="userSpaceOnUse"><stop offset="0" stop-color="#d2d2d2"/><stop offset="1" stop-color="#d2d2d2" stop-opacity="0"/></linearGradient><linearGradient id="未命名的渐变_2" x1="2320.13" y1="1162.79" x2="2319.78" y2="1161.87" gradientTransform="matrix(59.26, 0, 0, -64.97, -137276.31, 75603.41)" xlink:href="#未命名的渐变"/><linearGradient id="未命名的渐变_3" x1="2354.98" y1="1164.92" x2="2354.98" y2="1163.14" gradientTransform="matrix(370.52, 0, 0, -51.85, -872442.13, 60440.36)" xlink:href="#未命名的渐变"/><linearGradient id="未命名的渐变_4" x1="2292.91" y1="1163.36" x2="2292.57" y2="1162.24" gradientTransform="matrix(35.77, 0, 0, -55.85, -81841.5, 65024.33)" xlink:href="#未命名的渐变"/><linearGradient id="未命名的渐变_5" x1="2288.89" y1="1171.19" x2="2288.89" y2="1169.36" gradientTransform="matrix(32.84, 0, 0, -22.82, -75093.88, 26721.24)" xlink:href="#未命名的渐变"/><linearGradient id="未命名的渐变_6" x1="2302.06" y1="1168.07" x2="2302.06" y2="1166.58" gradientTransform="matrix(40.65, 0, 0, -28.39, -93474.27, 33159.73)" xlink:href="#未命名的渐变"/><linearGradient id="未命名的渐变_8" x1="2328.93" y1="1166.42" x2="2329.34" y2="1166.38" gradientTransform="matrix(75.57, 0, 0, -33.04, -175883.03, 38604.85)" gradientUnits="userSpaceOnUse"><stop offset="0" stop-color="#f2f2f2"/><stop offset="1" stop-color="#e9e9e9"/></linearGradient><linearGradient id="未命名的渐变_9" x1="2321.26" y1="1172.93" x2="2321.76" y2="1172.87" gradientTransform="matrix(60.2, 0, 0, -20.06, -139652.9, 23596.19)" gradientUnits="userSpaceOnUse"><stop offset="0" stop-color="#cac9c6"/><stop offset="1" stop-color="#dedede"/></linearGradient><linearGradient id="未命名的渐变_10" x1="2327.81" y1="1159.55" x2="2327.46" y2="1160.18" gradientTransform="matrix(71.05, 0, 0, -96.94, -165274.38, 112533.93)" gradientUnits="userSpaceOnUse"><stop offset="0" stop-color="#c5c5c5"/><stop offset="1" stop-color="#fff"/></linearGradient><linearGradient id="未命名的渐变_11" x1="2327.42" y1="1162.97" x2="2327.72" y2="1163.24" gradientTransform="matrix(71.1, 0, 0, -50.16, -165390.97, 58427.96)" gradientUnits="userSpaceOnUse"><stop offset="0" stop-color="#e3e3e3"/><stop offset="1" stop-color="#d3d3d3"/></linearGradient><linearGradient id="未命名的渐变_12" x1="2323.44" y1="1159.92" x2="2323.78" y2="1159.23" gradientTransform="matrix(64.2, 0, 0, -100.07, -149025.93, 116158.03)" gradientUnits="userSpaceOnUse"><stop offset="0" stop-color="#e5e5e5"/><stop offset="1" stop-color="#e8e8e8"/></linearGradient><linearGradient id="未命名的渐变_13" x1="2323.52" y1="1162.75" x2="2323.42" y2="1163.06" gradientTransform="matrix(64.15, 0, 0, -52.2, -148909.3, 60776.85)" gradientUnits="userSpaceOnUse"><stop offset="0" stop-color="#ddd"/><stop offset="1" stop-color="#d3d3d3"/></linearGradient><linearGradient id="未命名的渐变_14" x1="2334.35" y1="1164.25" x2="2333.91" y2="1164.59" gradientTransform="matrix(88.14, 0, 0, -42.6, -205632.93, 49685.51)" gradientUnits="userSpaceOnUse"><stop offset="0" stop-color="#eee"/><stop offset="1" stop-color="#dadbda"/></linearGradient><linearGradient id="未命名的渐变_15" x1="2332.55" y1="1163.82" x2="2333.1" y2="1163.53" gradientTransform="matrix(84.83, 0, 0, -45.74, -197732.97, 53309.62)" gradientUnits="userSpaceOnUse"><stop offset="0" stop-color="#fafafa"/><stop offset="1" stop-color="#ebebeb"/></linearGradient><linearGradient id="未命名的渐变_16" x1="2296.74" y1="1164.26" x2="2296.56" y2="1163.97" gradientTransform="matrix(37.42, 0, 0, -41.75, -85814.34, 48663.43)" gradientUnits="userSpaceOnUse"><stop offset="0" stop-color="#ddd"/><stop offset="1" stop-color="#dcdcdc"/></linearGradient><linearGradient id="未命名的渐变_22" x1="2308.84" y1="1168.17" x2="2308.44" y2="1167.7" gradientTransform="matrix(45.15, 0, 0, -26.8, -104079.31, 31341.39)" gradientUnits="userSpaceOnUse"><stop offset="0" stop-color="#fd9351"/><stop offset="1" stop-color="#fd763e"/></linearGradient></defs><g id="编组-2"><path id="路径" class="cls-1" d="M48.83,116.62c-4.38-2-9.13-7.29-7.78-12.3a1.63,1.63,0,0,1,1.76.69s7.6,11.87,5.47.95c-1-5.13-2.74-10.1-2.87-15.4C45.18,80.93,54,78.25,56.57,88.9c.33,1.41,1.62,12.85,4.54,11.54a2.1,2.1,0,0,0,.88-.89c1.48-2.43,1.92-6,4.64-6.83,2.39-.75,4.74,1.32,6,3.46,2.61,4.34,6.09,15.15.76,18.81s-18.78,4.24-24.53,1.68Z"/><path id="路径-2" data-name="路径" class="cls-2" d="M171.91,120.3c-1.93-4.41-1.88-11.53,2.5-14.35a1.63,1.63,0,0,1,.82,1.72s-2.33,13.9,3.42,4.37c2.73-4.49,4.78-9.32,8.2-13.35,6.28-7.34,14.65-3.35,9.4,6.25-.69,1.27-7.43,10.62-4.38,11.62a2.14,2.14,0,0,0,1.25-.08c2.73-.81,5.46-3.16,8-2,2.26,1,2.62,4.15,2.14,6.6-1,5-5.81,10.53-12.22,9.67s-16.64-4.67-19.16-10.43Z"/><path id="路径-3" data-name="路径" class="cls-3" d="M222.54,129.48c-25.76-17.68-62.18-28.7-102.54-28.7s-76.78,11-102.54,28.7Z"/><path id="形状结合" class="cls-4" d="M183.14,77.48c-1.63,2-2.68,5-1.7,7.55.67,1.79,2.71,1.8,2.57,4.29a8.07,8.07,0,0,1-1.25,3.48,26.34,26.34,0,0,1-4.21,5.53,4.86,4.86,0,0,1,1.83,4.5,8.09,8.09,0,0,1-2.31,4.49,3.24,3.24,0,0,1-1.36,1,3.47,3.47,0,0,1-1.57,0A27.45,27.45,0,0,1,167.8,106c-1.44-.69-2.92-1.64-3.41-3.14-.57-1.72.33-2.27,1.31-2.81l.25-.14a3.36,3.36,0,0,0,1.3-1.08c.72-1.18.74-2.75,1-4.06.37-1.93-.18-5.46,2.24-6.22.94-.29,2-.22,2.89-.52,2-.65,2.88-2.57,3.69-4.5l.15-.35a11.63,11.63,0,0,1,1.68-3C179.91,78.9,182.46,78.31,183.14,77.48ZM177.23,89s-7.36,8.58-7.12,16.52h2.38S173.35,95.9,177.23,89Z"/><path id="路径-4" data-name="路径" class="cls-5" d="M75.1,31.32h0a5.39,5.39,0,0,0-10.49-1.83,4.49,4.49,0,1,0,.14,9h9.9a3.59,3.59,0,0,0,.45-7.15Z"/><path id="路径-5" data-name="路径" class="cls-6" d="M116,25.89v0A6.73,6.73,0,0,0,103,23.61a5.62,5.62,0,0,0,.18,11.24h12.3a4.48,4.48,0,0,0,.56-8.93Z"/></g><g class="cls-7"><polygon id="路径-6" data-name="路径" class="cls-8" points="113.82 60.89 113.53 79.18 155.36 66.52 113.82 60.89"/><polygon id="路径-7" data-name="路径" class="cls-9" points="80.5 68.25 113.82 60.97 113.82 72.07 80.5 68.25"/><polygon id="路径-8" data-name="路径" class="cls-10" points="80.5 68.25 119.83 72.15 119.83 121.91 80.5 112.39 80.5 68.25"/><polygon id="矩形" class="cls-11" points="80.5 68.25 119.86 72 115.57 96.02 80.5 88.71 80.5 68.25"/><polygon id="路径-9" data-name="路径" class="cls-12" points="119.83 72.15 155.36 66.52 155.36 111.09 119.83 121.91 119.83 72.15"/><polygon id="矩形-2" data-name="矩形" class="cls-13" points="119.86 72.27 152.03 67.13 155.36 88.17 124.61 96.02 119.86 72.27"/><polygon id="路径-10" data-name="路径" class="cls-14" points="80.5 68.25 71.04 84.27 110.75 91.84 119.83 72.15 80.5 68.25"/><polygon id="路径-11" data-name="路径" class="cls-15" points="119.83 72.15 131 91.84 166.78 82.86 155.36 66.52 119.83 72.15"/><path id="路径-12" data-name="路径" class="cls-16" d="M115,70.65c.22,0,.45.06.68.07"/></g><g id="路径-19"><path class="cls-17" d="M114.91,70l-1.84-.77a15.07,15.07,0,0,1,2.25-3.64l1.55,1.27A13,13,0,0,0,114.91,70Zm8.9-1.87h-.24l.11-2h.13a2.76,2.76,0,0,0,2.3-1.28l1.75,1A4.74,4.74,0,0,1,123.81,68.15Zm-3.53-1.62a8.13,8.13,0,0,1-1.3-1.87l-.15.14-1.36-1.47c.33-.3.67-.6,1-.89a2.64,2.64,0,0,1,0-.28l.28,0a22.83,22.83,0,0,1,2-1.43l1.1,1.67c-.44.29-.86.59-1.28.91a1.78,1.78,0,0,0,.12.29,6.23,6.23,0,0,0,1,1.52Zm5.81-3.74a2,2,0,0,0-2-1.45l-.23-2A3.8,3.8,0,0,1,128,62.09Zm-4.63-2.72L119.78,59a20.46,20.46,0,0,1,2.69-3.23l1.42,1.41A18.47,18.47,0,0,0,121.46,60.07ZM126,55.18l-1.3-1.51c.94-.82,2-1.67,3.17-2.54l1.2,1.59C128,53.57,127,54.4,126,55.18Zm5.47-4.2-1.15-1.64c1.06-.74,2.17-1.49,3.34-2.26l1.1,1.67C133.65,49.51,132.55,50.25,131.51,51Z"/></g><g id="组_2" data-name="组 2" class="cls-18"><path id="路径_6" data-name="路径 6" class="cls-19" d="M127.5,43.43l6.25,2.35,16.39-10.15L139.21,45.78l6.25,3.12,7-14.83Z"/><path id="路径_7" data-name="路径 7" class="cls-20" d="M133.75,45.78l3.9,3.9,1.56-3.9,10.93-10.15Z"/><path id="路径_8" data-name="路径 8" class="cls-21" d="M137.65,49.68l3.57-2.9-2-1Z"/></g></svg>