<svg xmlns="http://www.w3.org/2000/svg" xmlns:xlink="http://www.w3.org/1999/xlink" width="36" height="36" viewBox="0 0 36 36">
  <defs>
    <style>
      .cls-1 {
        fill: none;
      }

      .cls-2 {
        fill: #f2f2f2;
      }

      .cls-3 {
        clip-path: url(#clip-path);
      }

      .cls-4 {
        fill: #b71000;
      }

      .cls-5 {
        fill: #ff3000;
      }

      .cls-6 {
        fill: #ec1000;
      }
    </style>
    <clipPath id="clip-path">
      <rect id="矩形_97" data-name="矩形 97" class="cls-1" width="23.847" height="28.177"/>
    </clipPath>
  </defs>
  <g id="组_736" data-name="组 736" transform="translate(-89 -7.076)">
    <rect id="矩形_101" data-name="矩形 101" class="cls-2" width="36" height="36" rx="8" transform="translate(89 7.076)"/>
    <g id="组_735" data-name="组 735" transform="translate(95 11.362)">
      <g id="组_734" data-name="组 734" class="cls-3">
        <path id="路径_355" data-name="路径 355" class="cls-4" d="M0,0S15.962,2.8,22.276,12.187c4.777,7.1-2.863,15.99-2.863,15.99s1.891-7.372-1.631-13.949C12.426,4.227,0,0,0,0" transform="translate(0 0)"/>
        <path id="路径_356" data-name="路径 356" class="cls-5" d="M19.413,28.177s7.64-8.887,2.863-15.99C17.016,4.365,5.061,1.118,1.216.252L0,0S8.2,5.141,8.573,11.521c.309,5.328-4.4,9.964-4.4,9.964s13.011-5.2,17.1-3.2c3.43,1.676-1.858,9.893-1.858,9.893"/>
        <path id="路径_357" data-name="路径 357" class="cls-6" d="M22.276,12.187c-.091-.136-.185-.27-.281-.4l-.093-.128q-.1-.136-.2-.27l-.111-.144q-.1-.126-.2-.25l-.115-.141q-.107-.13-.217-.259l-.1-.119q-.161-.186-.327-.368l0,0q-.165-.18-.335-.356l-.111-.113q-.118-.121-.238-.241l-.131-.128q-.115-.112-.232-.222l-.133-.125q-.125-.116-.252-.23l-.116-.105q-.185-.165-.374-.326L18.7,8.249q-.186-.158-.375-.313l-.125-.1q-.132-.107-.266-.212L17.79,7.51l-.256-.2L17.387,7.2q-.137-.1-.276-.2l-.127-.093q-.2-.144-.406-.286l-.015-.01q-.2-.137-.4-.269l-.134-.088q-.142-.093-.284-.185l-.155-.1L15.319,5.8l-.156-.1-.291-.176-.134-.08q-.212-.125-.425-.248l-.017-.01q-.206-.117-.412-.232l-.139-.076-.294-.16-.159-.085-.281-.148-.158-.082-.3-.153-.133-.067q-.216-.108-.432-.213l-.019-.009-.413-.2L11.416,3.7l-.292-.135-.16-.072-.278-.125-.157-.07-.295-.128L10.1,3.117l-.423-.178-.026-.011-.4-.162-.138-.055L8.836,2.6l-.155-.061-.268-.1-.151-.058L7.978,2.27l-.124-.046-.4-.147-.025-.009-.372-.132-.131-.046L6.661,1.8l-.144-.049-.249-.084-.138-.046-.261-.085L5.752,1.5l-.368-.117-.016,0-.342-.106L4.91,1.234l-.238-.072-.127-.038-.222-.066L4.2,1.023,3.967.956l-.1-.027-.32-.09L3.533.834,3.244.755l-.1-.027-.2-.053L2.837.647,2.653.6l-.1-.026L2.363.526,2.281.505,2.025.442l-.02,0L1.781.383,1.7.364,1.55.328,1.468.309,1.329.277,1.255.26,1.208.25,0,0S12.426,4.227,17.782,14.229a17.229,17.229,0,0,1,1.426,3.612,5.369,5.369,0,0,1,2.063.444c3.43,1.677-1.858,9.893-1.858,9.893s7.64-8.886,2.863-15.99"/>
      </g>
    </g>
  </g>
</svg>
