<svg id="图层_1" data-name="图层 1" xmlns="http://www.w3.org/2000/svg" xmlns:xlink="http://www.w3.org/1999/xlink" viewBox="0 0 240 150"><defs><style>.cls-1{fill:url(#未命名的渐变);}.cls-2{fill:url(#未命名的渐变_2);}.cls-3{fill:url(#未命名的渐变_3);}.cls-4{fill:url(#未命名的渐变_4);}.cls-5{fill:url(#未命名的渐变_5);}.cls-6{fill:url(#未命名的渐变_6);}.cls-7{opacity:0.6;}.cls-11,.cls-13,.cls-8{fill-rule:evenodd;}.cls-8{fill:url(#未命名的渐变_46);}.cls-9{fill:url(#未命名的渐变_45);}.cls-10{fill:url(#未命名的渐变_83);}.cls-11{fill:url(#未命名的渐变_43);}.cls-12{fill:#fff;}.cls-13{fill:url(#未命名的渐变_42);}.cls-14{opacity:0.8;}.cls-15{fill:url(#未命名的渐变_22);}.cls-16{fill:url(#未命名的渐变_22-2);}</style><linearGradient id="未命名的渐变" x1="2062.31" y1="966.96" x2="2062.95" y2="965.38" gradientTransform="matrix(63.93, 0, 0, -65.41, -131819.77, 63261.07)" gradientUnits="userSpaceOnUse"><stop offset="0" stop-color="#d2d2d2"/><stop offset="1" stop-color="#d2d2d2" stop-opacity="0"/></linearGradient><linearGradient id="未命名的渐变_2" x1="2059.24" y1="966.95" x2="2058.89" y2="966.03" gradientTransform="matrix(59.26, 0, 0, -64.97, -121816.66, 62879.19)" xlink:href="#未命名的渐变"/><linearGradient id="未命名的渐变_3" x1="2090.32" y1="968.32" x2="2090.32" y2="966.54" gradientTransform="matrix(370.52, 0, 0, -51.85, -774383.84, 50246.62)" xlink:href="#未命名的渐变"/><linearGradient id="未命名的渐变_4" x1="2034.96" y1="967.03" x2="2034.62" y2="965.91" gradientTransform="matrix(35.77, 0, 0, -55.85, -72613.77, 54058.84)" xlink:href="#未命名的渐变"/><linearGradient id="未命名的渐变_5" x1="2031.6" y1="969.86" x2="2031.6" y2="968.04" gradientTransform="matrix(32.84, 0, 0, -22.82, -66645.05, 22127.33)" xlink:href="#未命名的渐变"/><linearGradient id="未命名的渐变_6" x1="2043.22" y1="968.4" x2="2043.22" y2="966.91" gradientTransform="matrix(40.65, 0, 0, -28.39, -82951.98, 27490.23)" xlink:href="#未命名的渐变"/><linearGradient id="未命名的渐变_46" x1="1873.56" y1="1006.76" x2="1873.56" y2="1006.27" gradientTransform="matrix(8.93, -2.39, -4.07, -15.19, -12524.11, 19817.27)" gradientUnits="userSpaceOnUse"><stop offset="0" stop-color="#d1d1d1"/><stop offset="1" stop-color="#eaeaea"/></linearGradient><linearGradient id="未命名的渐变_45" x1="2069.57" y1="974.22" x2="2069.74" y2="974.02" gradientTransform="matrix(77.66, 0, 0, -64.74, -160622.78, 63133.11)" gradientUnits="userSpaceOnUse"><stop offset="0" stop-color="#f2f1f1"/><stop offset="1" stop-color="#f6f6f6"/></linearGradient><linearGradient id="未命名的渐变_83" x1="2083.21" y1="976.36" x2="2083.21" y2="975.87" gradientTransform="matrix(159.03, 0, 0, -55.5, -331169.95, 54243.85)" gradientUnits="userSpaceOnUse"><stop offset="0.75" stop-color="#e2e1e1"/><stop offset="1" stop-color="#fdfdfd"/></linearGradient><linearGradient id="未命名的渐变_43" x1="2080.57" y1="994.53" x2="2080.56" y2="994.5" gradientTransform="matrix(127.14, -34.07, -5.86, -21.88, -258566.78, 92706.34)" gradientUnits="userSpaceOnUse"><stop offset="0" stop-color="#fff"/><stop offset="1" stop-color="#f7f7f7"/></linearGradient><linearGradient id="未命名的渐变_42" x1="2082.08" y1="972.41" x2="2082.08" y2="971.92" gradientTransform="matrix(141.19, -37.83, -21.48, -80.17, -272951.78, 156802.09)" gradientUnits="userSpaceOnUse"><stop offset="0" stop-color="#eaeaea"/><stop offset="1" stop-color="#fcfcfc" stop-opacity="0"/></linearGradient><linearGradient id="未命名的渐变_22" x1="2025.64" y1="983.88" x2="2025.64" y2="983.4" gradientTransform="matrix(28.01, -7.51, -9.32, -34.77, -47464.1, 49505.91)" gradientUnits="userSpaceOnUse"><stop offset="0" stop-color="#fd9351"/><stop offset="1" stop-color="#fd763e"/></linearGradient><linearGradient id="未命名的渐变_22-2" x1="2057.91" y1="978.13" x2="2057.91" y2="977.64" gradientTransform="matrix(52.16, -13.98, -12.94, -48.3, -94555.24, 76079.32)" xlink:href="#未命名的渐变_22"/></defs><g id="编组-2"><path id="路径" class="cls-1" d="M48.83,116.62c-4.38-2-9.13-7.29-7.78-12.3a1.63,1.63,0,0,1,1.76.69s7.6,11.87,5.47.95c-1-5.13-2.74-10.1-2.87-15.4C45.18,80.93,54,78.25,56.57,88.9c.33,1.41,1.62,12.85,4.54,11.54a2.1,2.1,0,0,0,.88-.89c1.48-2.43,1.92-6,4.64-6.83,2.39-.75,4.74,1.32,6,3.46,2.61,4.34,6.09,15.15.76,18.81s-18.78,4.24-24.53,1.68Z"/><path id="路径-2" data-name="路径" class="cls-2" d="M171.91,120.3c-1.93-4.41-1.88-11.53,2.5-14.35a1.63,1.63,0,0,1,.82,1.72s-2.33,13.9,3.42,4.37c2.73-4.49,4.78-9.32,8.2-13.35,6.28-7.34,14.65-3.35,9.4,6.25-.69,1.27-7.43,10.62-4.38,11.62a2.14,2.14,0,0,0,1.25-.08c2.73-.81,5.46-3.16,8-2,2.26,1,2.62,4.15,2.14,6.6-1,5-5.81,10.53-12.22,9.67s-16.64-4.67-19.16-10.43Z"/><path id="路径-3" data-name="路径" class="cls-3" d="M222.54,129.48c-25.76-17.68-62.18-28.7-102.54-28.7s-76.78,11-102.54,28.7Z"/><path id="形状结合" class="cls-4" d="M183.14,77.48c-1.63,2-2.68,5-1.7,7.55.67,1.79,2.71,1.8,2.57,4.29a8.07,8.07,0,0,1-1.25,3.48,26.34,26.34,0,0,1-4.21,5.53,4.86,4.86,0,0,1,1.83,4.5,8.09,8.09,0,0,1-2.31,4.49,3.24,3.24,0,0,1-1.36,1,3.47,3.47,0,0,1-1.57,0A27.45,27.45,0,0,1,167.8,106c-1.44-.69-2.92-1.64-3.41-3.14-.57-1.72.33-2.27,1.31-2.81l.25-.14a3.36,3.36,0,0,0,1.3-1.08c.72-1.18.74-2.75,1-4.06.37-1.93-.18-5.46,2.24-6.22.94-.29,2-.22,2.89-.52,2-.65,2.88-2.57,3.69-4.5l.15-.35a11.63,11.63,0,0,1,1.68-3C179.91,78.9,182.46,78.31,183.14,77.48ZM177.23,89s-7.36,8.58-7.12,16.52h2.38S173.35,95.9,177.23,89Z"/><path id="路径-4" data-name="路径" class="cls-5" d="M75.1,31.32h0a5.39,5.39,0,0,0-10.49-1.83,4.49,4.49,0,1,0,.14,9h9.9a3.59,3.59,0,0,0,.45-7.15Z"/><path id="路径-5" data-name="路径" class="cls-6" d="M116,25.89v0A6.73,6.73,0,0,0,103,23.61a5.62,5.62,0,0,0,.18,11.24h12.3a4.48,4.48,0,0,0,.56-8.93Z"/></g><g class="cls-7"><path id="形状结合-2" data-name="形状结合" class="cls-8" d="M111.11,43.25a2.25,2.25,0,0,1,1.59,4.19l.82,3.08-.87.24-.82-3.09a2.25,2.25,0,0,1-.72-4.42Z"/><ellipse id="椭圆形" class="cls-9" cx="116.7" cy="64.12" rx="18.9" ry="15.75" transform="translate(-12.62 32.39) rotate(-15)"/><ellipse id="椭圆形-2" data-name="椭圆形" class="cls-10" cx="119.38" cy="74.12" rx="38.7" ry="13.5" transform="translate(-15.12 33.42) rotate(-15)"/><path id="形状结合-3" data-name="形状结合" class="cls-11" d="M147.69,69c-.15-.73.78-1.55,2.1-1.83s2.5.09,2.65.82-.78,1.54-2.09,1.82S147.85,69.68,147.69,69ZM92.11,81.56c1.25-.5,2.48-.35,2.76.35s-.5,1.66-1.74,2.16-2.48.35-2.76-.34S90.87,82.07,92.11,81.56ZM127,67.67c-.25-1.22,1.31-2.58,3.5-3s4.17.14,4.43,1.36-1.31,2.57-3.5,3S127.23,68.89,127,67.67Zm-19.56,2.2c2.12-.69,4.16-.29,4.54.89s-1,2.7-3.15,3.39-4.17.3-4.55-.88S105.28,70.56,107.41,69.87Z"/><ellipse id="椭圆形复制-6" class="cls-12" cx="120.43" cy="78.03" rx="20.64" ry="4.95" transform="translate(-16.09 33.83) rotate(-15)"/><path id="路径-2-2" data-name="路径-2" class="cls-13" d="M106.84,79.48,93.38,119a164.6,164.6,0,0,0,69.55-15.27q.18,0-30.14-31.24l-13.31,3.58Z"/></g><g id="编组-8" class="cls-14"><polygon id="路径-6" data-name="路径" class="cls-15" points="115.13 88.87 111.89 98.43 113.46 98.32 113.25 95.19 118.12 94.88 118.33 98.01 120.18 97.89 120.44 101.73 118.59 101.85 118.8 105 113.94 105.31 113.73 102.16 106.83 102.6 106.59 99.12 110.1 89.2 115.13 88.87"/><path id="形状" class="cls-16" d="M130.14,87.23c0,5.41-2.31,8.4-6.56,8.41s-6.64-3-6.67-8.39,2.29-8.39,6.58-8.4S130.11,81.83,130.14,87.23Zm-8.12,0c0,3.45.38,4.72,1.55,4.72s1.49-1.27,1.47-4.73-.38-4.73-1.52-4.73S122,83.76,122,87.25Zm15.76-4.42-1.32,10.11,1.53-.41-.82-3.06,4.75-1.28.82,3.07,1.81-.48,1,3.75-1.8.49.83,3.09-4.75,1.27L139,96.29l-6.74,1.8-.91-3.41,1.52-10.54,4.91-1.31Z"/></g></svg>